<svg width="33" height="38" viewBox="0 0 33 38" fill="none" xmlns="http://www.w3.org/2000/svg">
<path d="M12.375 4.25004C12.8722 4.24997 13.3634 4.36105 13.8143 4.57551C14.2652 4.78998 14.665 5.10267 14.9858 5.49175C15.3066 5.88084 15.5406 6.33695 15.6715 6.82825C15.8025 7.31955 15.8271 7.8342 15.7439 8.33629L19.1144 8.91379C19.2444 8.1252 19.2415 7.31962 19.1059 6.53204C19.7524 6.11732 20.5157 5.93614 21.2744 6.01735C22.033 6.09857 22.7433 6.43751 23.2921 6.98018C23.841 7.52286 24.1967 8.23805 24.3027 9.01185C24.4088 9.78565 24.259 10.5735 23.8773 11.25H5.54171C5.27655 11.2497 5.0151 11.1862 4.77805 11.0645C4.54101 10.9428 4.33487 10.7662 4.17597 10.5488C4.01707 10.3313 3.90976 10.079 3.86254 9.81168C3.81532 9.54439 3.82949 9.26952 3.90392 9.00881C3.97835 8.74811 4.111 8.50873 4.29137 8.30963C4.47174 8.11053 4.69487 7.95717 4.94311 7.8617C5.19135 7.76623 5.45788 7.73126 5.72159 7.75957C5.98531 7.78787 6.23897 7.87867 6.4625 8.02479C6.69261 8.17577 6.95471 8.268 7.22682 8.29374C7.49892 8.31948 7.77308 8.27797 8.02629 8.17271C8.2795 8.06745 8.50436 7.9015 8.682 7.6888C8.85964 7.47609 8.98488 7.22284 9.04721 6.95029C9.22331 6.18168 9.64791 5.49665 10.252 5.00645C10.8562 4.51624 11.6044 4.24968 12.375 4.25004ZM14.9649 1.26979C13.421 0.621818 11.6991 0.574829 10.1238 1.13768C8.54844 1.70053 7.22855 2.83432 6.41296 4.32529C5.31622 4.13115 4.18759 4.30802 3.19768 4.82917C2.20776 5.35032 1.41036 6.18742 0.926017 7.21394C0.44167 8.24046 0.296699 9.4006 0.513019 10.519C0.729339 11.6374 1.29519 12.6533 2.12504 13.413V34C2.12504 34.9283 2.48501 35.8185 3.12576 36.4749C3.76651 37.1313 4.63555 37.5 5.54171 37.5H22.625C23.5312 37.5 24.4002 37.1313 25.041 36.4749C25.6817 35.8185 26.0417 34.9283 26.0417 34H29.4584C30.3645 34 31.2336 33.6313 31.8743 32.9749C32.5151 32.3185 32.875 31.4283 32.875 30.5V18.25C32.875 17.3218 32.5151 16.4315 31.8743 15.7752C31.2336 15.1188 30.3645 14.75 29.4584 14.75H26.0417V14.1305C27.1037 12.8988 27.7088 11.3236 27.751 9.68075C27.7932 8.03794 27.2698 6.43229 26.2725 5.14505C25.2752 3.8578 23.8676 2.97104 22.2962 2.64007C20.7248 2.3091 19.0899 2.55503 17.6777 3.33479C16.9565 2.42461 16.0237 1.71456 14.9649 1.26979ZM26.0417 30.5V18.25H29.4584V30.5H26.0417ZM8.95838 18.25H12.375V30.5H8.95838V18.25ZM15.7917 18.25H19.2084V30.5H15.7917V18.25Z" fill="black"/>
</svg>
