<svg width="28" height="28" viewBox="0 0 28 28" fill="none" xmlns="http://www.w3.org/2000/svg">
<path d="M3.5 3.125H5V0.375H8V3.125H20V0.375H23V3.125H24.5C26.165 3.125 27.5 4.34875 27.5 5.875V25.125C27.5 25.8543 27.1839 26.5538 26.6213 27.0695C26.0587 27.5853 25.2956 27.875 24.5 27.875H3.5C2.70435 27.875 1.94129 27.5853 1.37868 27.0695C0.81607 26.5538 0.5 25.8543 0.5 25.125V5.875C0.5 5.14565 0.81607 4.44618 1.37868 3.93046C1.94129 3.41473 2.70435 3.125 3.5 3.125ZM3.5 25.125H24.5V11.375H3.5V25.125ZM3.5 8.625H24.5V5.875H3.5V8.625ZM21.5 14.125V16.875H6.5V14.125H21.5Z" fill="black"/>
</svg>
