<svg width="30" height="34" viewBox="0 0 30 34" fill="none" xmlns="http://www.w3.org/2000/svg">
<path d="M18.3333 22.3333H6.66667V25.6666H18.3333M26.6667 30.6666H3.33333V12.3333H26.6667M26.6667 3.99996H25V0.666626H21.6667V3.99996H8.33333V0.666626H5V3.99996H3.33333C2.44928 3.99996 1.60143 4.35115 0.976311 4.97627C0.351189 5.60139 0 6.44924 0 7.33329V30.6666C0 31.5507 0.351189 32.3985 0.976311 33.0236C1.60143 33.6488 2.44928 34 3.33333 34H26.6667C27.5507 34 28.3986 33.6488 29.0237 33.0236C29.6488 32.3985 30 31.5507 30 30.6666V7.33329C30 6.44924 29.6488 5.60139 29.0237 4.97627C28.3986 4.35115 27.5507 3.99996 26.6667 3.99996ZM23.3333 15.6666H6.66667V19H23.3333V15.6666Z" fill="black"/>
</svg>
