<svg width="26" height="29" viewBox="0 0 26 29" fill="none" xmlns="http://www.w3.org/2000/svg">
<path d="M22.9167 3.24996H21.5V0.416626H18.6667V3.24996H7.33333V0.416626H4.5V3.24996H3.08333C1.525 3.24996 0.25 4.52496 0.25 6.08329V25.9166C0.25 26.6681 0.548511 27.3887 1.07986 27.9201C1.61122 28.4514 2.33189 28.75 3.08333 28.75H22.9167C24.4892 28.75 25.75 27.4891 25.75 25.9166V6.08329C25.75 5.33185 25.4515 4.61118 24.9201 4.07982C24.3888 3.54847 23.6681 3.24996 22.9167 3.24996ZM22.9167 25.9166H3.08333V11.75H22.9167V25.9166ZM3.08333 8.91663V6.08329H22.9167V8.91663H3.08333ZM5.91667 14.5833H20.0833V17.4166H5.91667V14.5833ZM5.91667 20.25H15.8333V23.0833H5.91667V20.25Z" fill="black"/>
</svg>
