<svg width="31" height="30" viewBox="0 0 31 30" fill="none" xmlns="http://www.w3.org/2000/svg">
<path d="M25.7083 6.17497H25.7983C26.4977 6.17515 27.1874 6.34288 27.8127 6.66485C28.4381 6.98682 28.9818 7.45417 29.4007 8.02979C29.8196 8.60541 30.1022 9.27347 30.226 9.98094C30.3499 10.6884 30.3116 11.4158 30.1142 12.1054C29.9168 12.795 29.5657 13.4278 29.0888 13.9536C28.6119 14.4794 28.0223 14.8837 27.3668 15.1345C26.7114 15.3852 26.008 15.4755 25.3127 15.3981C24.6174 15.3207 23.9492 15.0778 23.3611 14.6887L24.1693 18.1186C24.2494 18.4587 24.2533 18.8131 24.1808 19.155C24.1083 19.497 23.9612 19.8175 23.7506 20.0925C23.54 20.3676 23.2715 20.5899 22.9652 20.7427C22.6589 20.8956 22.3228 20.975 21.9823 20.975H20.6089C20.2684 20.9748 19.9323 20.8951 19.6261 20.7421C19.3198 20.589 19.0514 20.3664 18.841 20.0912C18.6306 19.816 18.4837 19.4953 18.4114 19.1533C18.3391 18.8113 18.3433 18.4568 18.4237 18.1167L19.2337 14.6887C18.4744 15.1909 17.5857 15.4468 16.6831 15.4231C16.4852 14.6394 16.0425 13.944 15.4231 13.4436C15.7378 12.5997 15.8995 11.7037 15.9001 10.8C15.9001 9.28667 15.4573 7.88067 14.6995 6.70777C15.374 6.34229 16.1278 6.15895 16.8901 6.17497C16.7689 5.56459 16.7689 4.93534 16.8901 4.32497C17.1288 3.12287 17.8223 2.06747 18.8182 1.39093C19.814 0.714394 21.0305 0.472141 22.2001 0.717467C23.3697 0.962792 24.3966 1.6756 25.0548 2.69908C25.7131 3.72256 25.947 4.97287 25.7083 6.17497ZM8.7001 5.24997C7.65768 5.24999 6.63755 5.56011 5.76284 6.1429C4.88814 6.72568 4.19625 7.55621 3.77069 8.53425C3.34514 9.51228 3.20411 10.596 3.36463 11.6546C3.52515 12.7132 3.98035 13.7014 4.6753 14.5H4.2001C3.72271 14.5 3.26487 14.6949 2.92731 15.0418C2.58974 15.3888 2.4001 15.8593 2.4001 16.35C2.4001 16.8406 2.58974 17.3112 2.92731 17.6581C3.26487 18.0051 3.72271 18.2 4.2001 18.2H5.1361C4.4665 21.5263 2.7007 23.4466 1.7161 24.292C1.0933 24.8285 0.600098 25.6536 0.600098 26.6156C0.600098 28.0975 1.7701 29.3 3.2119 29.3H14.1901C15.6301 29.3 16.8001 28.0975 16.8001 26.6156C16.8001 25.6536 16.3069 24.8285 15.6841 24.292C14.6995 23.4466 12.9337 21.5263 12.2641 18.2H13.2001C13.6775 18.2 14.1353 18.0051 14.4729 17.6581C14.8105 17.3112 15.0001 16.8406 15.0001 16.35C15.0001 15.8593 14.8105 15.3888 14.4729 15.0418C14.1353 14.6949 13.6775 14.5 13.2001 14.5H12.7249C13.4198 13.7014 13.875 12.7132 14.0356 11.6546C14.1961 10.596 14.0551 9.51228 13.6295 8.53425C13.2039 7.55621 12.5121 6.72568 11.6374 6.1429C10.7626 5.56011 9.74252 5.24999 8.7001 5.24997Z" fill="black"/>
</svg>
