<svg width="17" height="19" viewBox="0 0 17 19" fill="none" xmlns="http://www.w3.org/2000/svg"><path d="M2.835 0.893 C 2.076 1.031,1.437 1.531,1.105 2.245 C 1.001 2.467,0.942 2.694,0.906 3.003 C 0.869 3.331,0.871 5.082,0.910 5.397 C 0.965 5.850,1.168 6.374,1.457 6.807 C 1.634 7.074,1.600 7.037,3.549 9.090 C 4.917 10.530,4.933 10.548,5.056 10.805 C 5.304 11.321,5.282 11.047,5.301 13.798 C 5.319 16.386,5.317 16.346,5.451 16.717 C 5.699 17.402,6.307 17.962,7.031 18.171 C 7.606 18.338,8.313 18.264,8.812 17.986 C 9.038 17.860,10.045 17.208,10.232 17.066 C 10.860 16.590,11.313 15.411,11.068 14.889 C 10.940 14.617,10.741 14.477,10.452 14.456 C 9.999 14.424,9.729 14.661,9.648 15.164 C 9.601 15.455,9.488 15.721,9.359 15.844 C 9.315 15.885,9.003 16.097,8.665 16.315 C 8.225 16.597,8.008 16.720,7.903 16.745 C 7.589 16.821,7.251 16.714,7.018 16.465 C 6.791 16.222,6.800 16.337,6.800 13.725 C 6.800 11.231,6.801 11.245,6.640 10.726 C 6.545 10.421,6.267 9.861,6.097 9.633 C 6.021 9.532,5.246 8.699,4.375 7.782 C 3.504 6.865,2.743 6.043,2.684 5.955 C 2.625 5.866,2.536 5.692,2.486 5.567 L 2.394 5.341 2.385 4.278 C 2.375 3.142,2.387 3.000,2.510 2.787 C 2.547 2.722,2.636 2.618,2.707 2.555 C 2.957 2.334,2.462 2.352,8.546 2.352 L 13.995 2.352 14.153 2.411 C 14.363 2.490,14.567 2.693,14.646 2.904 C 14.702 3.054,14.705 3.117,14.705 4.098 C 14.705 4.939,14.697 5.167,14.661 5.308 C 14.596 5.566,14.359 6.024,14.182 6.231 C 13.985 6.462,13.932 6.574,13.917 6.791 C 13.908 6.933,13.918 6.993,13.975 7.116 C 14.105 7.400,14.312 7.541,14.627 7.560 C 14.792 7.570,14.841 7.561,14.974 7.496 C 15.329 7.322,15.828 6.569,16.047 5.877 C 16.190 5.426,16.193 5.389,16.192 4.066 L 16.192 2.819 16.114 2.570 C 15.858 1.750,15.308 1.200,14.487 0.942 L 14.237 0.864 8.642 0.859 C 4.036 0.855,3.009 0.861,2.835 0.893 M11.285 7.354 C 9.983 7.544,8.909 8.532,8.581 9.843 C 8.499 10.172,8.479 10.809,8.540 11.158 C 8.700 12.078,9.230 12.876,10.022 13.389 C 10.616 13.774,11.354 13.951,12.081 13.882 C 12.536 13.840,12.827 13.758,13.254 13.551 L 13.518 13.424 13.941 13.839 C 14.419 14.307,14.518 14.369,14.802 14.370 C 15.314 14.373,15.658 13.911,15.513 13.415 C 15.468 13.259,15.435 13.217,15.023 12.800 L 14.581 12.353 14.697 12.134 C 15.353 10.891,15.134 9.358,14.155 8.336 C 13.400 7.548,12.371 7.196,11.285 7.354 M12.143 8.842 C 12.365 8.883,12.728 9.058,12.916 9.216 C 13.353 9.583,13.570 10.043,13.571 10.602 C 13.572 10.923,13.534 11.096,13.399 11.387 C 13.250 11.707,12.898 12.067,12.580 12.222 C 11.593 12.704,10.402 12.196,10.070 11.151 C 9.986 10.887,9.968 10.465,10.028 10.200 C 10.176 9.555,10.736 8.996,11.376 8.854 C 11.587 8.807,11.921 8.802,12.143 8.842 " stroke="none" fill-rule="evenodd" fill="black"></path></svg>