<svg width="36" height="33" viewBox="0 0 36 33" fill="none" xmlns="http://www.w3.org/2000/svg"><path d="M20.925 0.465 C 20.631 0.648,20.580 0.854,20.580 1.875 C 20.580 2.739,20.571 2.816,20.444 3.006 C 20.278 3.254,19.967 3.420,19.668 3.420 C 19.024 3.420,18.379 3.692,17.912 4.161 C 17.330 4.745,17.221 5.179,17.220 6.915 L 17.220 8.040 14.415 8.041 C 11.084 8.042,8.237 8.125,7.200 8.252 C 5.315 8.482,4.045 8.975,2.951 9.900 C 1.679 10.978,1.039 12.334,0.743 14.582 C 0.614 15.560,0.550 23.461,0.658 25.020 C 0.843 27.687,1.310 29.090,2.402 30.259 C 3.859 31.820,5.400 32.390,8.700 32.591 C 10.430 32.696,25.570 32.696,27.300 32.591 C 30.571 32.392,32.125 31.823,33.565 30.297 C 34.685 29.110,35.169 27.664,35.341 24.990 C 35.450 23.314,35.387 15.570,35.257 14.582 C 34.957 12.302,34.284 10.907,32.963 9.828 C 31.884 8.946,30.643 8.476,28.800 8.252 C 27.763 8.125,24.916 8.042,21.585 8.041 L 18.780 8.040 18.780 6.777 C 18.780 5.748,18.797 5.480,18.874 5.332 C 18.986 5.115,19.372 4.923,19.701 4.921 C 19.977 4.920,20.594 4.767,20.842 4.639 C 21.084 4.513,21.587 4.037,21.753 3.774 C 22.017 3.358,22.080 2.994,22.080 1.894 C 22.079 0.983,22.066 0.851,21.963 0.694 C 21.899 0.597,21.785 0.483,21.709 0.441 C 21.513 0.333,21.120 0.345,20.925 0.465 M26.210 9.602 C 28.948 9.693,30.022 9.871,31.139 10.419 C 31.624 10.658,31.792 10.783,32.283 11.274 C 33.741 12.734,33.951 14.068,33.881 21.450 C 33.862 23.397,33.818 25.300,33.781 25.680 C 33.642 27.135,33.300 28.213,32.745 28.948 C 31.822 30.172,30.471 30.796,28.260 31.021 C 25.990 31.252,10.010 31.252,7.740 31.021 C 5.592 30.803,4.234 30.197,3.327 29.053 C 2.808 28.400,2.432 27.390,2.283 26.250 C 2.164 25.347,2.102 23.310,2.102 20.340 C 2.102 13.857,2.312 12.681,3.717 11.274 C 4.209 10.783,4.376 10.658,4.861 10.420 C 5.938 9.891,7.130 9.682,9.513 9.605 C 11.677 9.535,24.131 9.533,26.210 9.602 M9.385 17.365 C 9.106 17.487,8.940 17.734,8.942 18.023 C 8.945 18.365,9.011 18.459,9.660 19.055 C 9.974 19.343,10.415 19.755,10.641 19.971 L 11.053 20.364 10.431 20.934 C 10.090 21.248,9.614 21.697,9.375 21.931 C 8.957 22.342,8.940 22.370,8.940 22.641 C 8.940 22.965,9.060 23.186,9.306 23.313 C 9.481 23.404,9.795 23.421,9.974 23.350 C 10.032 23.328,10.539 22.881,11.102 22.359 C 11.664 21.836,12.157 21.422,12.197 21.438 C 12.237 21.454,12.706 21.873,13.240 22.369 C 13.773 22.865,14.264 23.299,14.331 23.335 C 14.398 23.371,14.561 23.400,14.694 23.400 C 15.003 23.400,15.338 23.127,15.394 22.829 C 15.468 22.437,15.354 22.280,14.286 21.291 L 13.272 20.353 14.313 19.387 C 15.411 18.368,15.495 18.248,15.394 17.843 C 15.294 17.447,14.787 17.193,14.411 17.350 C 14.306 17.394,13.759 17.859,13.195 18.383 L 12.171 19.335 11.950 19.129 C 9.874 17.183,9.847 17.164,9.385 17.365 M25.985 18.166 C 25.580 18.389,25.560 18.490,25.560 20.326 C 25.560 22.107,25.581 22.247,25.891 22.490 C 26.009 22.583,26.140 22.620,26.347 22.620 C 26.713 22.620,26.979 22.408,27.062 22.050 C 27.133 21.740,27.134 19.003,27.063 18.695 C 26.945 18.188,26.416 17.928,25.985 18.166 " stroke="none" fill-rule="evenodd" fill="black"></path></svg>