<svg width="19" height="11" viewBox="0 0 19 11" fill="none" xmlns="http://www.w3.org/2000/svg">
<path d="M4.2222 2.86374V0.894043H18.6666V2.86374H4.2222ZM4.2222 6.80313V4.83344H18.6666V6.80313H4.2222ZM4.2222 10.7425V8.77283H18.6666V10.7425H4.2222ZM1.12696 2.86374C0.834633 2.86374 0.589593 2.76936 0.391842 2.5806C0.194091 2.39183 0.0952148 2.15793 0.0952148 1.87889C0.0952148 1.59985 0.194091 1.36595 0.391842 1.17719C0.589593 0.988424 0.834633 0.894043 1.12696 0.894043C1.41929 0.894043 1.66433 0.988424 1.86208 1.17719C2.05983 1.36595 2.15871 1.59985 2.15871 1.87889C2.15871 2.15793 2.05983 2.39183 1.86208 2.5806C1.66433 2.76936 1.41929 2.86374 1.12696 2.86374ZM1.12696 6.80313C0.834633 6.80313 0.589593 6.70875 0.391842 6.51999C0.194091 6.33123 0.0952148 6.09733 0.0952148 5.81828C0.0952148 5.53924 0.194091 5.30534 0.391842 5.11658C0.589593 4.92782 0.834633 4.83344 1.12696 4.83344C1.41929 4.83344 1.66433 4.92782 1.86208 5.11658C2.05983 5.30534 2.15871 5.53924 2.15871 5.81828C2.15871 6.09733 2.05983 6.33123 1.86208 6.51999C1.66433 6.70875 1.41929 6.80313 1.12696 6.80313ZM1.12696 10.7425C0.834633 10.7425 0.589593 10.6481 0.391842 10.4594C0.194091 10.2706 0.0952148 10.0367 0.0952148 9.75768C0.0952148 9.47864 0.194091 9.24474 0.391842 9.05597C0.589593 8.86721 0.834633 8.77283 1.12696 8.77283C1.41929 8.77283 1.66433 8.86721 1.86208 9.05597C2.05983 9.24474 2.15871 9.47864 2.15871 9.75768C2.15871 10.0367 2.05983 10.2706 1.86208 10.4594C1.66433 10.6481 1.41929 10.7425 1.12696 10.7425Z" fill="#1D1B20"/>
</svg>
