<svg width="22" height="20" viewBox="0 0 22 20" fill="none" xmlns="http://www.w3.org/2000/svg"><path d="M7.152 0.627 C 7.021 0.647,6.805 0.700,6.671 0.745 C 6.524 0.794,5.503 1.355,4.086 2.164 C 1.550 3.612,1.431 3.693,1.091 4.194 C 0.879 4.506,0.670 4.973,0.606 5.278 C 0.522 5.672,0.522 15.706,0.605 16.182 C 0.672 16.568,0.737 16.768,0.911 17.123 C 1.081 17.472,1.525 17.933,1.858 18.107 C 2.439 18.409,3.175 18.451,3.889 18.221 C 4.214 18.116,4.643 17.893,5.903 17.171 C 6.498 16.831,7.059 16.522,7.150 16.485 C 7.266 16.439,7.412 16.419,7.643 16.418 L 7.972 16.418 10.815 17.834 C 12.586 18.716,13.748 19.273,13.897 19.313 C 14.068 19.359,14.279 19.376,14.648 19.377 C 15.229 19.377,15.513 19.320,15.913 19.123 C 16.197 18.984,20.123 16.739,20.445 16.532 C 20.973 16.194,21.400 15.611,21.638 14.905 L 21.725 14.648 21.736 9.460 C 21.745 5.702,21.736 4.181,21.706 3.942 C 21.553 2.750,20.850 1.889,19.849 1.666 C 19.633 1.618,19.475 1.608,19.179 1.625 C 18.473 1.665,18.234 1.763,16.628 2.676 C 15.052 3.573,15.078 3.561,14.691 3.564 C 14.523 3.565,14.320 3.545,14.242 3.519 C 14.163 3.494,12.868 2.858,11.365 2.108 C 9.194 1.023,8.575 0.730,8.358 0.680 C 8.023 0.603,7.469 0.578,7.152 0.627 M10.962 3.574 C 12.394 4.289,13.657 4.901,13.768 4.933 L 13.970 4.992 13.970 11.371 L 13.970 17.751 11.357 16.432 C 9.921 15.707,8.650 15.086,8.534 15.053 L 8.323 14.991 8.323 8.632 C 8.323 5.135,8.331 2.273,8.341 2.273 C 8.350 2.273,9.530 2.859,10.962 3.574 M6.820 8.686 L 6.820 15.025 6.723 15.050 C 6.561 15.090,6.192 15.287,4.910 16.015 C 4.233 16.400,3.573 16.751,3.444 16.795 C 2.806 17.011,2.363 16.818,2.140 16.225 C 2.075 16.049,2.071 15.822,2.062 10.800 L 2.052 5.558 2.179 5.293 C 2.250 5.141,2.373 4.960,2.463 4.872 C 2.571 4.767,3.287 4.336,4.693 3.533 C 5.833 2.881,6.777 2.348,6.793 2.347 C 6.808 2.347,6.820 5.199,6.820 8.686 M19.641 3.158 C 19.804 3.208,20.031 3.468,20.134 3.725 L 20.222 3.942 20.222 9.222 L 20.222 14.502 20.107 14.722 C 19.882 15.151,19.868 15.161,17.620 16.444 C 16.472 17.100,15.519 17.637,15.503 17.637 C 15.487 17.637,15.473 14.783,15.473 11.296 L 15.473 4.956 15.611 4.911 C 15.830 4.840,16.110 4.691,17.341 3.988 C 18.608 3.264,18.724 3.206,19.048 3.135 C 19.269 3.086,19.424 3.092,19.641 3.158 " stroke="none" fill-rule="evenodd" fill="black"></path></svg>