<svg width="22" height="36" viewBox="0 0 22 36" fill="none" xmlns="http://www.w3.org/2000/svg">
<path d="M21.2 11V3.19998C21.2 3.19998 18.9334 0.599976 11 0.599976C3.06672 0.599976 0.800049 3.19998 0.800049 3.19998V11C0.867706 14.6175 1.6423 18.1715 3.06672 21.4C3.76811 23.2454 4.13012 25.2368 4.13012 27.25C4.13012 29.2631 3.76811 31.2546 3.06672 33.1C3.06672 33.1 3.06672 35.7 11 35.7C18.9334 35.7 18.9334 33.1 18.9334 33.1C18.232 31.2546 17.87 29.2631 17.87 27.25C17.87 25.2368 18.232 23.2454 18.9334 21.4C20.3578 18.1715 21.1324 14.6175 21.2 11ZM11 33.1C9.19439 33.1895 7.38799 32.9436 5.65072 32.372C6.11085 30.4948 6.33978 28.55 6.33072 26.6H15.6694C15.6603 28.55 15.8892 30.4948 16.3494 32.372C14.6121 32.9436 12.8057 33.1895 11 33.1ZM11 11C8.31105 11.0742 5.63002 10.6349 3.06672 9.69998V4.49998C5.63002 3.56503 8.31105 3.1257 11 3.19998C13.689 3.1257 16.3701 3.56503 18.9334 4.49998V9.69998C16.372 10.636 13.6883 11.078 11 11Z" fill="black"/>
</svg>
